<svg width="20" height="20" viewBox="0 0 20 20" fill="none" xmlns="http://www.w3.org/2000/svg">
<path d="M6.82075 17.3126C7.49409 17.3126 8.03993 16.7668 8.03993 16.0935C8.03993 15.4201 7.49409 14.8743 6.82075 14.8743C6.14741 14.8743 5.60156 15.4201 5.60156 16.0935C5.60156 16.7668 6.14741 17.3126 6.82075 17.3126Z" fill="white"/>
<path d="M15.3549 17.3126C16.0283 17.3126 16.5741 16.7668 16.5741 16.0935C16.5741 15.4201 16.0283 14.8743 15.3549 14.8743C14.6816 14.8743 14.1357 15.4201 14.1357 16.0935C14.1357 16.7668 14.6816 17.3126 15.3549 17.3126Z" fill="white"/>
<path d="M17.5189 4.84591C17.4333 4.74115 17.3254 4.65678 17.2031 4.59892C17.0808 4.54106 16.9471 4.51116 16.8118 4.5114H5.21619L4.98264 3.18629C4.95774 3.04515 4.8839 2.91729 4.77409 2.82517C4.66428 2.73306 4.52552 2.68259 4.38219 2.68262H1.94382C1.78215 2.68262 1.62709 2.74684 1.51277 2.86116C1.39845 2.97548 1.33423 3.13054 1.33423 3.29221C1.33423 3.45388 1.39845 3.60894 1.51277 3.72326C1.62709 3.83758 1.78215 3.9018 1.94382 3.9018H3.8709L5.61052 13.7612C5.63542 13.9024 5.70927 14.0302 5.81908 14.1223C5.92889 14.2144 6.06764 14.2649 6.21097 14.2649H15.9645C16.1261 14.2649 16.2812 14.2007 16.3955 14.0863C16.5098 13.972 16.574 13.817 16.574 13.6553C16.574 13.4936 16.5098 13.3386 16.3955 13.2242C16.2812 13.1099 16.1261 13.0457 15.9645 13.0457H6.72227L6.50738 11.8265H15.7145C15.9259 11.8262 16.1307 11.7529 16.2943 11.619C16.4579 11.4851 16.5702 11.2988 16.6121 11.0916L17.7094 5.60523C17.7359 5.47246 17.7325 5.33547 17.6995 5.20415C17.6666 5.07284 17.6049 4.95048 17.5189 4.84591V4.84591Z" fill="white"/>
</svg>
