
<svg width="11" height="11" viewBox="0 0 11 11" fill="none" xmlns="http://www.w3.org/2000/svg">
<path d="M5.68564 1.23438C3.48271 1.23438 1.69043 3.02665 1.69043 5.22959C1.69043 7.43252 3.48271 9.2248 5.68564 9.2248C7.88858 9.2248 9.68086 7.43252 9.68086 5.22959C9.68086 3.02665 7.88858 1.23438 5.68564 1.23438ZM7.76488 3.89062L5.18336 6.96386C5.15504 6.99758 5.11981 7.02483 5.08004 7.04376C5.04027 7.06268 4.9969 7.07283 4.95287 7.07353H4.94768C4.9046 7.07352 4.86201 7.06445 4.82267 7.04691C4.78333 7.02937 4.74811 7.00376 4.7193 6.97173L3.61293 5.74243C3.58484 5.71263 3.56298 5.67752 3.54865 5.63915C3.53431 5.60078 3.5278 5.55993 3.52948 5.51901C3.53116 5.47808 3.541 5.43791 3.55843 5.40084C3.57586 5.36377 3.60052 5.33057 3.63096 5.30317C3.66141 5.27577 3.69703 5.25473 3.73572 5.2413C3.77441 5.22786 3.8154 5.22229 3.85627 5.22492C3.89714 5.22755 3.93708 5.23832 3.97373 5.25661C4.01038 5.27489 4.04301 5.30032 4.06969 5.33139L4.93961 6.29792L7.29429 3.49532C7.34711 3.43425 7.42184 3.39643 7.50232 3.39001C7.5828 3.3836 7.66258 3.40912 7.7244 3.46105C7.78622 3.51298 7.82513 3.58715 7.8327 3.66753C7.84028 3.74791 7.81591 3.82805 7.76488 3.89062V3.89062Z" fill="#01B574"/>
</svg>
