<svg width="21" height="20" viewBox="0 0 21 20" fill="none" xmlns="http://www.w3.org/2000/svg">
<path d="M10.4149 2.07324C6.03844 2.07324 2.49023 5.62145 2.49023 9.99795C2.49023 14.3744 6.03844 17.9227 10.4149 17.9227C14.7914 17.9227 18.3396 14.3744 18.3396 9.99795C18.3396 5.62145 14.7914 2.07324 10.4149 2.07324Z" fill="white" stroke="#0075FF" stroke-width="0.650232" stroke-miterlimit="10"/>
<path d="M10.4147 2.07324C8.20231 2.07324 6.12207 5.62145 6.12207 9.99795C6.12207 14.3744 8.20231 17.9227 10.4147 17.9227C12.6272 17.9227 14.7074 14.3744 14.7074 9.99795C14.7074 5.62145 12.6272 2.07324 10.4147 2.07324Z" fill="white" stroke="#0075FF" stroke-width="0.650232" stroke-miterlimit="10"/>
<path d="M5.13159 4.71484C6.58852 5.74925 8.42263 6.36608 10.4149 6.36608C12.4071 6.36608 14.2412 5.74925 15.6981 4.71484" fill="white"/>
<path d="M5.13159 4.71484C6.58852 5.74925 8.42263 6.36608 10.4149 6.36608C12.4071 6.36608 14.2412 5.74925 15.6981 4.71484" stroke="#0075FF" stroke-width="0.650232" stroke-linecap="round" stroke-linejoin="round"/>
<path d="M15.6981 15.2823C14.2412 14.2479 12.4071 13.6311 10.4149 13.6311C8.42263 13.6311 6.58852 14.2479 5.13159 15.2823" stroke="#0075FF" stroke-width="0.650232" stroke-linecap="round" stroke-linejoin="round"/>
<path d="M10.4146 2.07324V17.9227" stroke="#0075FF" stroke-width="0.650232" stroke-miterlimit="10"/>
<path d="M18.3396 9.9978H2.49023" stroke="#0075FF" stroke-width="0.650232" stroke-miterlimit="10"/>
</svg>
