<svg width="21" height="20" viewBox="0 0 21 20" fill="none" xmlns="http://www.w3.org/2000/svg">
<path d="M4.29994 4.20563H16.4918C16.6342 4.20556 16.7765 4.2146 16.9177 4.23268C16.8699 3.89656 16.7544 3.57361 16.5783 3.28331C16.4023 2.99302 16.1692 2.74138 15.8933 2.54358C15.6173 2.34578 15.3042 2.2059 14.9727 2.1324C14.6413 2.05889 14.2983 2.05327 13.9647 2.11587L3.93799 3.82768H3.92656C3.29719 3.94804 2.7375 4.30413 2.36182 4.82322C2.92782 4.42064 3.60536 4.20473 4.29994 4.20563V4.20563Z" fill="white"/>
<path d="M16.492 5.12183H4.30019C3.65371 5.12253 3.03391 5.37966 2.57678 5.83679C2.11965 6.29392 1.86252 6.91372 1.86182 7.5602V14.8753C1.86252 15.5218 2.11965 16.1416 2.57678 16.5987C3.03391 17.0558 3.65371 17.313 4.30019 17.3137H16.492C17.1385 17.313 17.7583 17.0558 18.2154 16.5987C18.6726 16.1416 18.9297 15.5218 18.9304 14.8753V7.5602C18.9297 6.91372 18.6726 6.29392 18.2154 5.83679C17.7583 5.37966 17.1385 5.12253 16.492 5.12183V5.12183ZM14.6823 12.4369C14.4412 12.4369 14.2055 12.3654 14.005 12.2315C13.8045 12.0975 13.6482 11.9071 13.5559 11.6843C13.4637 11.4615 13.4395 11.2164 13.4866 10.9799C13.5336 10.7434 13.6497 10.5262 13.8202 10.3557C13.9907 10.1852 14.208 10.069 14.4445 10.022C14.681 9.97495 14.9261 9.9991 15.1489 10.0914C15.3717 10.1836 15.5621 10.3399 15.696 10.5404C15.83 10.7409 15.9015 10.9766 15.9015 11.2178C15.9015 11.5411 15.773 11.8512 15.5444 12.0798C15.3158 12.3085 15.0057 12.4369 14.6823 12.4369Z" fill="white"/>
<path d="M1.88086 10.1298V6.33888C1.88086 5.51326 2.33805 4.1291 3.9249 3.82926C5.27172 3.57666 6.6052 3.57666 6.6052 3.57666C6.6052 3.57666 7.48149 4.18625 6.7576 4.18625C6.03371 4.18625 6.05276 5.11969 6.7576 5.11969C7.46244 5.11969 6.7576 6.01503 6.7576 6.01503L3.91919 9.23444L1.88086 10.1298Z" fill="white"/>
</svg>
